<svg width="215" height="51" viewBox="0 0 215 51" fill="none" xmlns="http://www.w3.org/2000/svg">
<rect width="51" height="51" rx="25.5" fill="#F3F3F3"/>
<g clip-path="url(#clip0_47_2360)">
<path d="M31.1965 27.6515L31.8764 23.2673H27.6254V20.4223C27.6254 19.2229 28.2192 18.0537 30.1231 18.0537H32.0557V14.3211C32.0557 14.3211 30.302 14.0249 28.6252 14.0249C25.1243 14.0249 22.836 16.1247 22.836 19.926V23.2673H18.9446V27.6515H22.836V38.2499H27.6254V27.6515H31.1965Z" fill="black"/>
</g>
<rect x="81.6453" width="51" height="51" rx="25.5" fill="#F3F3F3"/>
<g clip-path="url(#clip1_47_2360)">
<path d="M107.15 20.3449C104.254 20.3449 101.918 22.6443 101.918 25.4952C101.918 28.346 104.254 30.6454 107.15 30.6454C110.046 30.6454 112.382 28.346 112.382 25.4952C112.382 22.6443 110.046 20.3449 107.15 20.3449ZM107.15 28.8435C105.278 28.8435 103.748 27.3419 103.748 25.4952C103.748 23.6484 105.274 22.1468 107.15 22.1468C109.026 22.1468 110.551 23.6484 110.551 25.4952C110.551 27.3419 109.021 28.8435 107.15 28.8435ZM113.816 20.1342C113.816 20.8021 113.27 21.3355 112.596 21.3355C111.917 21.3355 111.376 20.7976 111.376 20.1342C111.376 19.4708 111.922 18.9329 112.596 18.9329C113.27 18.9329 113.816 19.4708 113.816 20.1342ZM117.282 21.3534C117.204 19.7442 116.831 18.3188 115.633 17.1444C114.44 15.97 112.992 15.6025 111.357 15.5218C109.673 15.4276 104.623 15.4276 102.938 15.5218C101.308 15.598 99.8596 15.9655 98.662 17.1399C97.4644 18.3143 97.0956 19.7397 97.0136 21.3489C96.918 23.0074 96.918 27.9784 97.0136 29.6369C97.091 31.2461 97.4644 32.6715 98.662 33.8459C99.8596 35.0203 101.303 35.3878 102.938 35.4685C104.623 35.5627 109.673 35.5627 111.357 35.4685C112.992 35.3923 114.44 35.0248 115.633 33.8459C116.826 32.6715 117.2 31.2461 117.282 29.6369C117.377 27.9784 117.377 23.0119 117.282 21.3534ZM115.105 31.4164C114.75 32.295 114.062 32.9718 113.165 33.3259C111.822 33.8504 108.634 33.7294 107.15 33.7294C105.665 33.7294 102.473 33.8459 101.135 33.3259C100.242 32.9763 99.5545 32.2995 99.1948 31.4164C98.662 30.0941 98.785 26.9564 98.785 25.4952C98.785 24.0339 98.6666 20.8917 99.1948 19.5739C99.55 18.6953 100.238 18.0185 101.135 17.6644C102.478 17.1399 105.665 17.2609 107.15 17.2609C108.634 17.2609 111.826 17.1444 113.165 17.6644C114.058 18.014 114.745 18.6908 115.105 19.5739C115.638 20.8962 115.515 24.0339 115.515 25.4952C115.515 26.9564 115.638 30.0986 115.105 31.4164Z" fill="black"/>
</g>
<rect x="163.291" width="51" height="51" rx="25.5" fill="#F3F3F3"/>
<g clip-path="url(#clip2_47_2360)">
<path d="M197.907 21.0611C197.921 21.258 197.921 21.4549 197.921 21.6518C197.921 27.6564 193.189 34.5752 184.539 34.5752C181.874 34.5752 179.398 33.8298 177.316 32.5361C177.694 32.5783 178.058 32.5924 178.452 32.5924C180.65 32.5924 182.675 31.8752 184.291 30.6518C182.223 30.6096 180.49 29.3018 179.893 27.5017C180.184 27.5439 180.476 27.572 180.781 27.572C181.204 27.572 181.626 27.5158 182.019 27.4174C179.864 26.9955 178.248 25.1674 178.248 22.9596V22.9033C178.874 23.2408 179.602 23.4518 180.374 23.4799C179.107 22.6642 178.277 21.272 178.277 19.697C178.277 18.8533 178.51 18.0799 178.917 17.4049C181.233 20.1611 184.713 21.9611 188.616 22.158C188.543 21.8205 188.499 21.469 188.499 21.1174C188.499 18.6142 190.596 16.5752 193.203 16.5752C194.557 16.5752 195.78 17.1236 196.64 18.0096C197.703 17.8127 198.722 17.433 199.625 16.9127C199.275 17.9674 198.533 18.8533 197.557 19.4158C198.504 19.3174 199.421 19.0642 200.266 18.7127C199.625 19.6127 198.824 20.4142 197.907 21.0611Z" fill="black"/>
</g>
<defs>
<clipPath id="clip0_47_2360">
<rect width="15.3" height="24.225" fill="white" transform="translate(17.8501 14.0249)"/>
</clipPath>
<clipPath id="clip1_47_2360">
<rect width="20.4" height="22.95" fill="white" transform="translate(96.9453 14.0249)"/>
</clipPath>
<clipPath id="clip2_47_2360">
<rect width="22.95" height="19.125" fill="white" transform="translate(177.316 16.5752)"/>
</clipPath>
</defs>
</svg>
