<svg width="96" height="15" viewBox="0 0 96 15" fill="none" xmlns="http://www.w3.org/2000/svg">
<path d="M12.5667 9.33095C12.3622 9.5291 12.2683 9.81566 12.3149 10.0967L13.0167 13.9806C13.0759 14.3098 12.9369 14.643 12.6614 14.8332C12.3914 15.0306 12.0323 15.0543 11.7378 14.8964L8.24146 13.0728C8.11989 13.0081 7.98489 12.9733 7.84675 12.9694H7.63281C7.55861 12.9804 7.48598 13.0041 7.41967 13.0404L3.92253 14.8727C3.74965 14.9595 3.55387 14.9903 3.36205 14.9595C2.89471 14.8711 2.58289 14.4259 2.65946 13.9562L3.36205 10.0722C3.40862 9.78882 3.31468 9.50068 3.11022 9.29938L0.259621 6.53641C0.0212163 6.3051 -0.0616729 5.95776 0.0472672 5.64436C0.15305 5.33175 0.423032 5.10361 0.749062 5.05229L4.67248 4.48312C4.97089 4.45233 5.23297 4.27077 5.36717 4.00236L7.09601 0.457864C7.13706 0.378922 7.18995 0.306295 7.25389 0.24472L7.32494 0.189461C7.36204 0.148411 7.40467 0.114466 7.45203 0.0868363L7.53808 0.0552595L7.67228 0H8.00463C8.30145 0.0307874 8.56275 0.208407 8.69932 0.473653L10.451 4.00236C10.5774 4.2605 10.8229 4.4397 11.1063 4.48312L15.0297 5.05229C15.3612 5.09966 15.6383 5.32859 15.7481 5.64436C15.8515 5.96092 15.7623 6.30826 15.5191 6.53641L12.5667 9.33095Z" fill="#FBD103"/>
<path d="M32.5667 9.33095C32.3622 9.5291 32.2683 9.81566 32.3149 10.0967L33.0167 13.9806C33.0759 14.3098 32.9369 14.643 32.6614 14.8332C32.3914 15.0306 32.0323 15.0543 31.7378 14.8964L28.2415 13.0728C28.1199 13.0081 27.9849 12.9733 27.8467 12.9694H27.6328C27.5586 12.9804 27.486 13.0041 27.4197 13.0404L23.9225 14.8727C23.7497 14.9595 23.5539 14.9903 23.362 14.9595C22.8947 14.8711 22.5829 14.4259 22.6595 13.9562L23.362 10.0722C23.4086 9.78882 23.3147 9.50068 23.1102 9.29938L20.2596 6.53641C20.0212 6.3051 19.9383 5.95776 20.0473 5.64436C20.153 5.33175 20.423 5.10361 20.7491 5.05229L24.6725 4.48312C24.9709 4.45233 25.233 4.27077 25.3672 4.00236L27.096 0.457864C27.1371 0.378922 27.1899 0.306295 27.2539 0.24472L27.3249 0.189461C27.362 0.148411 27.4047 0.114466 27.452 0.0868363L27.5381 0.0552595L27.6723 0H28.0046C28.3015 0.0307874 28.5627 0.208407 28.6993 0.473653L30.451 4.00236C30.5774 4.2605 30.8229 4.4397 31.1063 4.48312L35.0297 5.05229C35.3612 5.09966 35.6383 5.32859 35.7481 5.64436C35.8515 5.96092 35.7623 6.30826 35.5191 6.53641L32.5667 9.33095Z" fill="#FBD103"/>
<path d="M52.5667 9.33095C52.3622 9.5291 52.2683 9.81566 52.3149 10.0967L53.0167 13.9806C53.0759 14.3098 52.9369 14.643 52.6614 14.8332C52.3914 15.0306 52.0323 15.0543 51.7378 14.8964L48.2415 13.0728C48.1199 13.0081 47.9849 12.9733 47.8467 12.9694H47.6328C47.5586 12.9804 47.486 13.0041 47.4197 13.0404L43.9225 14.8727C43.7497 14.9595 43.5539 14.9903 43.362 14.9595C42.8947 14.8711 42.5829 14.4259 42.6595 13.9562L43.362 10.0722C43.4086 9.78882 43.3147 9.50068 43.1102 9.29938L40.2596 6.53641C40.0212 6.3051 39.9383 5.95776 40.0473 5.64436C40.153 5.33175 40.423 5.10361 40.7491 5.05229L44.6725 4.48312C44.9709 4.45233 45.233 4.27077 45.3672 4.00236L47.096 0.457864C47.1371 0.378922 47.1899 0.306295 47.2539 0.24472L47.3249 0.189461C47.362 0.148411 47.4047 0.114466 47.452 0.0868363L47.5381 0.0552595L47.6723 0H48.0046C48.3015 0.0307874 48.5627 0.208407 48.6993 0.473653L50.451 4.00236C50.5774 4.2605 50.8229 4.4397 51.1063 4.48312L55.0297 5.05229C55.3612 5.09966 55.6383 5.32859 55.7481 5.64436C55.8515 5.96092 55.7623 6.30826 55.5191 6.53641L52.5667 9.33095Z" fill="#FBD103"/>
<path d="M72.5667 9.33095C72.3622 9.5291 72.2683 9.81566 72.3149 10.0967L73.0167 13.9806C73.0759 14.3098 72.9369 14.643 72.6614 14.8332C72.3914 15.0306 72.0323 15.0543 71.7378 14.8964L68.2415 13.0728C68.1199 13.0081 67.9849 12.9733 67.8467 12.9694H67.6328C67.5586 12.9804 67.486 13.0041 67.4197 13.0404L63.9225 14.8727C63.7497 14.9595 63.5539 14.9903 63.362 14.9595C62.8947 14.8711 62.5829 14.4259 62.6595 13.9562L63.362 10.0722C63.4086 9.78882 63.3147 9.50068 63.1102 9.29938L60.2596 6.53641C60.0212 6.3051 59.9383 5.95776 60.0473 5.64436C60.153 5.33175 60.423 5.10361 60.7491 5.05229L64.6725 4.48312C64.9709 4.45233 65.233 4.27077 65.3672 4.00236L67.096 0.457864C67.1371 0.378922 67.1899 0.306295 67.2539 0.24472L67.3249 0.189461C67.362 0.148411 67.4047 0.114466 67.452 0.0868363L67.5381 0.0552595L67.6723 0H68.0046C68.3015 0.0307874 68.5627 0.208407 68.6993 0.473653L70.451 4.00236C70.5774 4.2605 70.8229 4.4397 71.1063 4.48312L75.0297 5.05229C75.3612 5.09966 75.6383 5.32859 75.7481 5.64436C75.8515 5.96092 75.7623 6.30826 75.5191 6.53641L72.5667 9.33095Z" fill="#FBD103"/>
<g opacity="0.5">
<path d="M92.223 8.96782L92.223 8.9678L92.2187 8.9719C91.8959 9.28473 91.7483 9.73624 91.8216 10.1784L91.8215 10.1785L91.8228 10.1856L92.5246 14.0692C92.5246 14.0692 92.5246 14.0693 92.5246 14.0694C92.5489 14.205 92.4918 14.3427 92.3773 14.4218L92.3772 14.4216L92.3664 14.4296C92.2529 14.5125 92.1004 14.5234 91.9741 14.4557L91.9741 14.4557L91.969 14.453L88.4744 12.6304C88.283 12.5289 88.0729 12.4757 87.861 12.4696L87.8539 12.4694H87.8467H87.6328H87.5958L87.5592 12.4749C87.4312 12.4939 87.3035 12.5348 87.1842 12.5994L83.695 14.4274C83.6181 14.4653 83.5323 14.479 83.4483 14.4669C83.2524 14.4262 83.1218 14.2387 83.1524 14.04L83.8541 10.1612L83.8541 10.1612L83.8554 10.1533C83.9283 9.70968 83.7813 9.25841 83.461 8.94308L83.4582 8.94035L80.6078 6.17755C80.6078 6.17752 80.6077 6.1775 80.6077 6.17747C80.5084 6.08108 80.4747 5.9376 80.5195 5.80853L80.5209 5.80462C80.567 5.66845 80.6838 5.56962 80.8244 5.54659L84.7352 4.97926C85.1993 4.92747 85.6056 4.64355 85.8144 4.22597L85.8144 4.22598L85.8166 4.22156L87.542 0.684025C87.5557 0.658528 87.5711 0.636827 87.5871 0.618972L87.6319 0.584136L87.6665 0.557236L87.6888 0.532552L87.7103 0.524651L87.7195 0.521301L87.7285 0.517599L87.7712 0.5H87.9735C88.0938 0.518941 88.1974 0.593084 88.2534 0.699946L90.0019 4.22212C90.0022 4.22261 90.0024 4.2231 90.0026 4.22359C90.2017 4.62912 90.5869 4.90939 91.0305 4.97736L91.0305 4.97737L91.0345 4.97794L94.9579 5.54712L94.959 5.54727C95.1033 5.56789 95.2247 5.66691 95.2742 5.80402C95.315 5.93455 95.2778 6.07719 95.177 6.17178L95.1754 6.17328L92.223 8.96782Z" stroke="#323232"/>
</g>
</svg>
